# converted from logic_bomb.s3o
# radius=8.000 height=7.000 mid=(-0.000,0.000,0.000)
# texture1=minetex.tga texture2=black.tga
# pieces=1 verts=15 faces=5
v -6.00000 0.02000 0.00000
v -1.85410 0.02000 5.70634
v 4.85410 0.02000 3.52671
v 4.85410 0.02000 -3.52671
v -1.85410 0.02000 -5.70634
v 0.00000 12.02000 -0.00000
v -6.00000 0.02000 0.00000
v -1.85410 0.02000 5.70634
v 4.85410 0.02000 3.52671
v 4.85410 0.02000 -3.52671
v -1.85410 0.02000 -5.70634
v 0.00000 12.02000 -0.00000
v 0.00000 12.02000 -0.00000
v 0.00000 12.02000 -0.00000
v 0.00000 12.02000 -0.00000
vt 0.21498 0.02051
vt 0.71255 0.49648
vt 0.55443 0.01604
vt 0.31364 0.49690
vt 0.04939 0.49714
vt 0.18196 0.98197
vt 0.97680 0.49629
vt 0.81868 0.01628
vt 0.65902 0.49735
vt 0.39477 0.49735
vt 0.47923 0.02039
vt 0.34733 0.50540
vt 0.52690 0.98230
vt 0.68610 0.50111
vt 0.84501 0.98134
o base/mine
f 15/15 7/7 2/2
f 14/14 8/8 3/3
f 13/13 9/9 10/10
f 6/6 4/4 5/5
f 12/12 11/11 1/1
