# converted from octashot.s3o
# radius=4.000 height=4.000 mid=(-0.000,0.000,0.000)
# texture1=octashot.tga texture2=octa_supplement.tga
# pieces=1 verts=23 faces=8
v 0.00000 0.00001 -11.24935
v 0.00000 -2.93876 -0.00000
v 2.93876 0.00000 0.00000
v -2.93876 0.00000 0.00000
v 0.00000 0.00001 -11.24935
v 0.00000 2.93876 0.00000
v 0.00000 -0.00000 4.89442
v -2.93876 0.00000 0.00000
v 0.00000 2.93876 0.00000
v -2.93876 0.00000 0.00000
v 0.00000 -0.00000 4.89442
v 0.00000 -2.93876 -0.00000
v 0.00000 0.00001 -11.24935
v -2.93876 0.00000 0.00000
v 0.00000 -2.93876 -0.00000
v 2.93876 0.00000 0.00000
v 0.00000 -0.00000 4.89442
v 0.00000 2.93876 0.00000
v 0.00000 2.93876 0.00000
v 0.00000 0.00001 -11.24935
v 0.00000 -2.93876 -0.00000
v 0.00000 -0.00000 4.89442
v 2.93876 0.00000 0.00000
vt 0.56538 0.29630
vt 0.07638 0.14800
vt 0.05800 0.35692
vt 0.00000 0.74642
vt 0.51099 0.74642
vt 0.04304 0.54116
vt 0.26117 0.74642
vt 0.21318 0.95412
vt 0.41431 0.89472
vt 0.93023 0.54116
vt 0.71705 0.54116
vt 0.82706 0.72375
vt 0.92641 0.46502
vt 0.41589 0.44291
vt 0.45001 0.64985
vt 0.75505 0.18316
vt 0.54899 0.23780
vt 0.70213 0.38610
vt 0.10104 0.56218
vt 0.56899 0.35692
vt 0.11001 0.74642
vt 0.00000 0.92902
vt 0.21318 0.92902
o root
f 2/2 1/1 3/3
f 5/5 4/4 6/6
f 8/8 7/7 9/9
f 11/11 10/10 12/12
f 14/14 13/13 15/15
f 17/17 16/16 18/18
f 20/20 19/19 3/3
f 22/22 21/21 23/23
