# converted from octaeder.s3o
# radius=48.000 height=64.000 mid=(-0.000,30.000,0.000)
# texture1=octaeder.tga texture2=solid_bright.tga
# pieces=4 verts=48 faces=16
v 0.00000 48.00752 0.00002
v 23.99999 -0.00001 23.99999
v -23.99999 -0.00001 23.99999
v -23.99999 -0.00001 23.99999
v 23.99999 -0.00001 23.99999
v 0.00000 -48.00752 -0.00002
v 0.00000 48.00752 0.00002
v -23.99999 -0.00001 23.99999
v 0.00000 -48.00752 -0.00002
v 23.99999 -0.00001 23.99999
v 0.00000 48.00752 0.00002
v 0.00000 -48.00752 -0.00002
v 0.00000 48.00752 0.00002
v -24.00000 -0.00001 23.99999
v -23.99999 0.00001 -24.00000
v -23.99999 0.00001 -24.00000
v -24.00000 -0.00001 23.99999
v -0.00000 -48.00752 -0.00002
v 0.00000 48.00752 0.00002
v -23.99999 0.00001 -24.00000
v -0.00000 -48.00752 -0.00002
v -24.00000 -0.00001 23.99999
v 0.00000 48.00752 0.00002
v -0.00000 -48.00752 -0.00002
v 0.00000 48.00752 0.00002
v 24.00001 0.00001 -23.99998
v 23.99998 -0.00001 24.00001
v 23.99998 -0.00001 24.00001
v 24.00001 0.00001 -23.99998
v 0.00000 -48.00752 -0.00002
v 0.00000 48.00752 0.00002
v 23.99998 -0.00001 24.00001
v 0.00000 -48.00752 -0.00002
v 24.00001 0.00001 -23.99998
v 0.00000 48.00752 0.00002
v 0.00000 -48.00752 -0.00002
v -0.00000 48.00752 -0.00002
v -24.00000 -0.00001 -23.99999
v 23.99999 -0.00001 -24.00000
v 23.99999 -0.00001 -24.00000
v -24.00000 -0.00001 -23.99999
v 0.00000 -48.00752 0.00002
v -0.00000 48.00752 -0.00002
v 23.99999 -0.00001 -24.00000
v 0.00000 -48.00752 0.00002
v -24.00000 -0.00001 -23.99999
v -0.00000 48.00752 -0.00002
v 0.00000 -48.00752 0.00002
vt 0.77687 0.01770
vt 0.56977 0.48085
vt 0.98397 0.48085
vt 0.98397 0.48085
vt 0.56977 0.48085
vt 0.77687 0.94400
vt 0.30089 0.15824
vt 0.01703 0.55973
vt 0.30089 0.96122
vt 0.58474 0.55973
vt 0.30089 0.15824
vt 0.30089 0.96122
vt 0.77687 0.01770
vt 0.56977 0.48085
vt 0.98397 0.48085
vt 0.98397 0.48085
vt 0.56977 0.48085
vt 0.77687 0.94400
vt 0.30089 0.15824
vt 0.01703 0.55973
vt 0.30089 0.96122
vt 0.58474 0.55973
vt 0.30089 0.15824
vt 0.30089 0.96122
vt 0.77687 0.01770
vt 0.56977 0.48085
vt 0.98397 0.48085
vt 0.98397 0.48085
vt 0.56977 0.48085
vt 0.77687 0.94400
vt 0.30089 0.15824
vt 0.01703 0.55973
vt 0.30089 0.96122
vt 0.58474 0.55973
vt 0.30089 0.15824
vt 0.30089 0.96122
vt 0.77687 0.01770
vt 0.56977 0.48085
vt 0.98397 0.48085
vt 0.98397 0.48085
vt 0.56977 0.48085
vt 0.77687 0.94400
vt 0.30089 0.15824
vt 0.01703 0.55973
vt 0.30089 0.96122
vt 0.58474 0.55973
vt 0.30089 0.15824
vt 0.30089 0.96122
o base/aimer/rotor/blade0
f 2/2 1/1 3/3
f 5/5 4/4 6/6
f 8/8 7/7 9/9
f 11/11 10/10 12/12
o base/aimer/rotor/blade1
f 14/14 13/13 15/15
f 17/17 16/16 18/18
f 20/20 19/19 21/21
f 23/23 22/22 24/24
o base/aimer/rotor/blade3
f 26/26 25/25 27/27
f 29/29 28/28 30/30
f 32/32 31/31 33/33
f 35/35 34/34 36/36
o base/aimer/rotor/blade2
f 38/38 37/37 39/39
f 41/41 40/40 42/42
f 44/44 43/43 45/45
f 47/47 46/46 48/48
