# converted from sigterm.s3o
# radius=8.000 height=4.000 mid=(-0.000,0.000,0.000)
# texture1=signal.tga texture2=solid_bright.tga
# pieces=1 verts=174 faces=58
v -3.05363 -1.76302 -8.84722
v 0.00000 0.00000 -14.76658
v -3.05363 1.76302 -8.84722
v 0.00000 -3.52603 -8.84722
v 0.00000 0.00000 -14.76658
v -3.05363 -1.76302 -8.84722
v 3.05363 -1.76302 -8.84722
v 0.00000 0.00000 -14.76658
v 0.00000 -3.52603 -8.84722
v 3.05363 1.76302 -8.84722
v 0.00000 0.00000 -14.76658
v 3.05363 -1.76302 -8.84722
v 0.00000 3.52603 -8.84722
v 0.00000 0.00000 -14.76658
v 3.05363 1.76302 -8.84722
v -3.05363 1.76302 -8.84722
v 0.00000 0.00000 -14.76658
v 0.00000 3.52603 -8.84722
v 0.00000 4.30490 -12.98434
v 0.00000 4.30490 -15.31810
v -3.72814 2.15245 -15.31810
v 0.00000 4.30490 -12.98434
v -3.72814 2.15245 -15.31810
v -3.72814 2.15245 -12.98434
v 0.00000 4.30490 -12.98434
v 3.72814 2.15245 -12.98434
v 3.72814 2.15245 -15.31810
v 0.00000 4.30490 -12.98434
v 3.72814 2.15245 -15.31810
v 0.00000 4.30490 -15.31810
v 3.72814 2.15245 -12.98434
v 3.72814 -2.15245 -12.98434
v 3.72814 -2.15245 -15.31810
v 3.72814 2.15245 -12.98434
v 3.72814 -2.15245 -15.31810
v 3.72814 2.15245 -15.31810
v 3.72814 -2.15245 -12.98434
v 0.00000 -4.30490 -12.98434
v 0.00000 -4.30490 -15.31810
v 3.72814 -2.15245 -12.98434
v 0.00000 -4.30490 -15.31810
v 3.72814 -2.15245 -15.31810
v 0.00000 -4.30490 -12.98434
v -3.72814 -2.15245 -12.98434
v -3.72814 -2.15245 -15.31810
v 0.00000 -4.30490 -12.98434
v -3.72814 -2.15245 -15.31810
v 0.00000 -4.30490 -15.31810
v -3.72814 -2.15245 -12.98434
v -3.72814 2.15245 -12.98434
v -3.72814 2.15245 -15.31810
v -3.72814 -2.15245 -12.98434
v -3.72814 2.15245 -15.31810
v -3.72814 -2.15245 -15.31810
v -3.83891 -2.21640 -12.98434
v -3.83891 -2.21640 -15.31810
v -3.83891 2.21638 -15.31810
v -3.83891 -2.21640 -12.98434
v -3.83891 2.21638 -15.31810
v -3.83891 2.21640 -12.98434
v 0.00000 -4.43278 -12.98434
v 0.00000 -4.43278 -15.31810
v -3.83891 -2.21640 -15.31810
v 0.00000 -4.43278 -12.98434
v -3.83891 -2.21640 -15.31810
v -3.83891 -2.21640 -12.98434
v 3.83891 -2.21640 -12.98434
v 3.83891 -2.21640 -15.31810
v 0.00000 -4.43278 -15.31810
v 3.83891 -2.21640 -12.98434
v 0.00000 -4.43278 -15.31810
v 0.00000 -4.43278 -12.98434
v 3.83890 2.21640 -12.98434
v 3.83890 2.21640 -15.31810
v 3.83891 -2.21640 -15.31810
v 3.83890 2.21640 -12.98434
v 3.83891 -2.21640 -15.31810
v 3.83891 -2.21640 -12.98434
v 0.00000 4.43278 -12.98434
v 0.00000 4.43278 -15.31810
v 3.83890 2.21640 -15.31810
v 0.00000 4.43278 -12.98434
v 3.83890 2.21640 -15.31810
v 3.83890 2.21640 -12.98434
v 0.00000 4.43278 -12.98434
v -3.83891 2.21640 -12.98434
v -3.83891 2.21638 -15.31810
v 0.00000 4.43278 -12.98434
v -3.83891 2.21638 -15.31810
v 0.00000 4.43278 -15.31810
v 1.69093 -0.97626 7.00162
v 0.00000 -1.95251 7.00162
v 0.00000 1.95251 7.00162
v 1.69093 -0.97626 7.00162
v 0.00000 1.95251 7.00162
v 1.69093 0.97626 7.00162
v -1.69093 0.97626 7.00162
v 0.00000 1.95251 7.00162
v 0.00000 -1.95251 7.00162
v -1.69093 0.97626 7.00162
v 0.00000 -1.95251 7.00162
v -1.69093 -0.97626 7.00162
v -1.69093 0.97626 7.00162
v -3.05363 1.76302 3.88282
v 0.00000 3.52603 3.88282
v -1.69093 0.97626 7.00162
v 0.00000 3.52603 3.88282
v 0.00000 1.95251 7.00162
v 3.05363 1.76302 3.88282
v 1.69093 0.97626 7.00162
v 0.00000 1.95251 7.00162
v 3.05363 1.76302 3.88282
v 0.00000 1.95251 7.00162
v 0.00000 3.52603 3.88282
v 3.05363 -1.76302 3.88282
v 1.69093 -0.97626 7.00162
v 1.69093 0.97626 7.00162
v 3.05363 -1.76302 3.88282
v 1.69093 0.97626 7.00162
v 3.05363 1.76302 3.88282
v 0.00000 -3.52603 3.88282
v 0.00000 -1.95251 7.00162
v 1.69093 -0.97626 7.00162
v 0.00000 -3.52603 3.88282
v 1.69093 -0.97626 7.00162
v 3.05363 -1.76302 3.88282
v -3.05363 -1.76302 3.88282
v -1.69093 -0.97626 7.00162
v 0.00000 -1.95251 7.00162
v -3.05363 -1.76302 3.88282
v 0.00000 -1.95251 7.00162
v 0.00000 -3.52603 3.88282
v -3.05363 1.76302 3.88282
v -1.69093 0.97626 7.00162
v -1.69093 -0.97626 7.00162
v -3.05363 1.76302 3.88282
v -1.69093 -0.97626 7.00162
v -3.05363 -1.76302 3.88282
v -3.05363 1.76302 3.88282
v -3.05363 1.76302 -8.84722
v 0.00000 3.52603 -8.84722
v -3.05363 1.76302 3.88282
v 0.00000 3.52603 -8.84722
v 0.00000 3.52603 3.88282
v 0.00000 3.52603 3.88282
v 0.00000 3.52603 -8.84722
v 3.05363 1.76302 -8.84722
v 0.00000 3.52603 3.88282
v 3.05363 1.76302 -8.84722
v 3.05363 1.76302 3.88282
v 3.05363 1.76302 3.88282
v 3.05363 1.76302 -8.84722
v 3.05363 -1.76302 -8.84722
v 3.05363 1.76302 3.88282
v 3.05363 -1.76302 -8.84722
v 3.05363 -1.76302 3.88282
v 3.05363 -1.76302 3.88282
v 3.05363 -1.76302 -8.84722
v 0.00000 -3.52603 -8.84722
v 3.05363 -1.76302 3.88282
v 0.00000 -3.52603 -8.84722
v 0.00000 -3.52603 3.88282
v 0.00000 -3.52603 3.88282
v 0.00000 -3.52603 -8.84722
v -3.05363 -1.76302 -8.84722
v 0.00000 -3.52603 3.88282
v -3.05363 -1.76302 -8.84722
v -3.05363 -1.76302 3.88282
v -3.05363 1.76302 -8.84722
v -3.05363 1.76302 3.88282
v -3.05363 -1.76302 3.88282
v -3.05363 1.76302 -8.84722
v -3.05363 -1.76302 3.88282
v -3.05363 -1.76302 -8.84722
vt 0.34691 0.48247
vt 0.51585 0.43513
vt 0.34327 0.40144
vt 0.37498 0.56765
vt 0.51585 0.43513
vt 0.34691 0.48247
vt 0.35081 0.14701
vt 0.51585 0.19747
vt 0.38092 0.06239
vt 0.34611 0.22649
vt 0.51585 0.19747
vt 0.35081 0.14701
vt 0.36484 0.31250
vt 0.51585 0.19747
vt 0.34611 0.22649
vt 0.34327 0.40144
vt 0.51585 0.43513
vt 0.36484 0.31250
vt 0.89105 0.23830
vt 0.93130 0.23830
vt 0.93130 0.16405
vt 0.89105 0.23830
vt 0.93130 0.16405
vt 0.89105 0.16405
vt 0.89105 0.23830
vt 0.89105 0.31255
vt 0.93130 0.31255
vt 0.89105 0.23830
vt 0.93130 0.31255
vt 0.93130 0.23830
vt 0.89105 0.31255
vt 0.89105 0.38679
vt 0.93130 0.38680
vt 0.89105 0.31255
vt 0.93130 0.38680
vt 0.93130 0.31255
vt 0.89105 0.38679
vt 0.89105 0.46104
vt 0.93130 0.46105
vt 0.89105 0.38679
vt 0.93130 0.46105
vt 0.93130 0.38680
vt 0.89105 0.01555
vt 0.89105 0.08980
vt 0.93130 0.08980
vt 0.89105 0.01555
vt 0.93130 0.08980
vt 0.93130 0.01555
vt 0.89105 0.08980
vt 0.89105 0.16405
vt 0.93130 0.16405
vt 0.89105 0.08980
vt 0.93130 0.16405
vt 0.93130 0.08980
vt 0.93947 0.38933
vt 0.97895 0.38933
vt 0.97895 0.31434
vt 0.93947 0.38933
vt 0.97895 0.31434
vt 0.93947 0.31434
vt 0.93947 0.46431
vt 0.97895 0.46431
vt 0.97895 0.38933
vt 0.93947 0.46431
vt 0.97895 0.38933
vt 0.93947 0.38933
vt 0.93947 0.08938
vt 0.97895 0.08938
vt 0.97895 0.01439
vt 0.93947 0.08938
vt 0.97895 0.01439
vt 0.93947 0.01439
vt 0.93947 0.16436
vt 0.97895 0.16436
vt 0.97895 0.08938
vt 0.93947 0.16436
vt 0.97895 0.08938
vt 0.93947 0.08938
vt 0.93947 0.23935
vt 0.97895 0.23935
vt 0.97895 0.16436
vt 0.93947 0.23935
vt 0.97895 0.16436
vt 0.93947 0.16436
vt 0.93947 0.23935
vt 0.93947 0.31434
vt 0.97895 0.31434
vt 0.93947 0.23935
vt 0.97895 0.31434
vt 0.97895 0.23935
vt 0.69673 0.17237
vt 0.74161 0.19828
vt 0.74161 0.09463
vt 0.69673 0.17237
vt 0.74161 0.09463
vt 0.69673 0.12055
vt 0.78650 0.12055
vt 0.74161 0.09463
vt 0.74161 0.19828
vt 0.78650 0.12055
vt 0.74161 0.19828
vt 0.78650 0.17237
vt 0.78650 0.12055
vt 0.85768 0.07945
vt 0.74161 0.01243
vt 0.78650 0.12055
vt 0.74161 0.01243
vt 0.74161 0.09463
vt 0.62555 0.07945
vt 0.69673 0.12055
vt 0.74161 0.09463
vt 0.62555 0.07945
vt 0.74161 0.09463
vt 0.74161 0.01243
vt 0.62555 0.21347
vt 0.69673 0.17237
vt 0.69673 0.12055
vt 0.62555 0.21347
vt 0.69673 0.12055
vt 0.62555 0.07945
vt 0.74161 0.28048
vt 0.74161 0.19828
vt 0.69673 0.17237
vt 0.74161 0.28048
vt 0.69673 0.17237
vt 0.62555 0.21347
vt 0.85768 0.21347
vt 0.78650 0.17237
vt 0.74161 0.19828
vt 0.85768 0.21347
vt 0.74161 0.19828
vt 0.74161 0.28048
vt 0.85768 0.07945
vt 0.78650 0.12055
vt 0.78650 0.17237
vt 0.85768 0.07945
vt 0.78650 0.17237
vt 0.85768 0.21347
vt 0.02930 0.39772
vt 0.34327 0.40144
vt 0.36484 0.31250
vt 0.02930 0.39772
vt 0.36484 0.31250
vt 0.03128 0.30533
vt 0.03128 0.30533
vt 0.36484 0.31250
vt 0.34611 0.22649
vt 0.03128 0.30533
vt 0.34611 0.22649
vt 0.03553 0.20764
vt 0.03553 0.20764
vt 0.34611 0.22649
vt 0.35081 0.14701
vt 0.03553 0.20764
vt 0.35081 0.14701
vt 0.04470 0.11142
vt 0.04470 0.11142
vt 0.35081 0.14701
vt 0.38092 0.06239
vt 0.04470 0.11142
vt 0.38092 0.06239
vt 0.05604 0.02143
vt 0.03620 0.59564
vt 0.37498 0.56765
vt 0.34691 0.48247
vt 0.03620 0.59564
vt 0.34691 0.48247
vt 0.03018 0.49620
vt 0.34327 0.40144
vt 0.02930 0.39772
vt 0.03018 0.49620
vt 0.34327 0.40144
vt 0.03018 0.49620
vt 0.34691 0.48247
o bomb
f 2/2 1/1 3/3
f 5/5 4/4 6/6
f 8/8 7/7 9/9
f 11/11 10/10 12/12
f 14/14 13/13 15/15
f 17/17 16/16 18/18
f 20/20 19/19 21/21
f 23/23 22/22 24/24
f 26/26 25/25 27/27
f 29/29 28/28 30/30
f 32/32 31/31 33/33
f 35/35 34/34 36/36
f 38/38 37/37 39/39
f 41/41 40/40 42/42
f 44/44 43/43 45/45
f 47/47 46/46 48/48
f 50/50 49/49 51/51
f 53/53 52/52 54/54
f 56/56 55/55 57/57
f 59/59 58/58 60/60
f 62/62 61/61 63/63
f 65/65 64/64 66/66
f 68/68 67/67 69/69
f 71/71 70/70 72/72
f 74/74 73/73 75/75
f 77/77 76/76 78/78
f 80/80 79/79 81/81
f 83/83 82/82 84/84
f 86/86 85/85 87/87
f 89/89 88/88 90/90
f 92/92 91/91 93/93
f 95/95 94/94 96/96
f 98/98 97/97 99/99
f 101/101 100/100 102/102
f 104/104 103/103 105/105
f 107/107 106/106 108/108
f 110/110 109/109 111/111
f 113/113 112/112 114/114
f 116/116 115/115 117/117
f 119/119 118/118 120/120
f 122/122 121/121 123/123
f 125/125 124/124 126/126
f 128/128 127/127 129/129
f 131/131 130/130 132/132
f 134/134 133/133 135/135
f 137/137 136/136 138/138
f 140/140 139/139 141/141
f 143/143 142/142 144/144
f 146/146 145/145 147/147
f 149/149 148/148 150/150
f 152/152 151/151 153/153
f 155/155 154/154 156/156
f 158/158 157/157 159/159
f 161/161 160/160 162/162
f 164/164 163/163 165/165
f 167/167 166/166 168/168
f 170/170 169/169 171/171
f 173/173 172/172 174/174
